/* XPM */
static char * uscoin32_xpm[] = {
"32 32 599 2",
"  	c None",
". 	c #FFFFFF",
"+ 	c #E1E1E1",
"@ 	c #8B8B8B",
"# 	c #5E5E5E",
"$ 	c #D6D6D6",
"% 	c #FEFEFE",
"& 	c #FBFBFB",
"* 	c #F6F6F6",
"= 	c #FDFDFD",
"- 	c #E2E2E2",
"; 	c #7B7B7B",
"> 	c #1C1C1C",
", 	c #949494",
"' 	c #ECECEC",
") 	c #FDFBF9",
"! 	c #FEFCF9",
"~ 	c #FDFBF8",
"{ 	c #D2D2D2",
"] 	c #626262",
"^ 	c #000000",
"/ 	c #666666",
"( 	c #D5D5D5",
"_ 	c #F3F3F3",
": 	c #D3D3D3",
"< 	c #B9B9B9",
"[ 	c #ABA9A9",
"} 	c #A9A7A7",
"| 	c #B5B3B4",
"1 	c #CCCBCC",
"2 	c #E8E8E8",
"3 	c #C7C7C7",
"4 	c #676767",
"5 	c #232323",
"6 	c #4D4D4D",
"7 	c #808080",
"8 	c #898989",
"9 	c #686666",
"0 	c #3D393A",
"a 	c #2C2B2C",
"b 	c #24332F",
"c 	c #233732",
"d 	c #293531",
"e 	c #383A39",
"f 	c #595657",
"g 	c #919091",
"h 	c #CDCCCD",
"i 	c #FAFAFA",
"j 	c #C3C3C3",
"k 	c #585858",
"l 	c #272727",
"m 	c #595959",
"n 	c #4A4747",
"o 	c #222323",
"p 	c #0A1A17",
"q 	c #001914",
"r 	c #000D09",
"s 	c #001F16",
"t 	c #004431",
"u 	c #006446",
"v 	c #006143",
"w 	c #053C2A",
"x 	c #1B1F1E",
"y 	c #484346",
"z 	c #9A9899",
"A 	c #E4E4E4",
"B 	c #D7D7D7",
"C 	c #313131",
"D 	c #5B5B5B",
"E 	c #787777",
"F 	c #333232",
"G 	c #09201E",
"H 	c #001917",
"I 	c #003D34",
"J 	c #006E5B",
"K 	c #00715B",
"L 	c #006049",
"M 	c #00553F",
"N 	c #006548",
"O 	c #006949",
"P 	c #004C32",
"Q 	c #002D1B",
"R 	c #01301F",
"S 	c #24302C",
"T 	c #7B7778",
"U 	c #D9D9D9",
"V 	c #EDEBED",
"W 	c #7D7B7E",
"X 	c #2C2A2E",
"Y 	c #545154",
"Z 	c #737274",
"` 	c #2C2C2E",
" .	c #000001",
"..	c #004644",
"+.	c #004D49",
"@.	c #005349",
"#.	c #00816A",
"$.	c #00B592",
"%.	c #009774",
"&.	c #00533F",
"*.	c #00291F",
"=.	c #002117",
"-.	c #003F29",
";.	c #008D58",
">.	c #00A465",
",.	c #005935",
"'.	c #1A322A",
").	c #726C71",
"!.	c #DFDDE1",
"~.	c #FBF8FC",
"{.	c #FDFAFE",
"].	c #FCFAFD",
"^.	c #FFFDFF",
"/.	c #F1F3F0",
"(.	c #B2C0AC",
"_.	c #465D3D",
":.	c #415A37",
"<.	c #586950",
"[.	c #424A3E",
"}.	c #061206",
"|.	c #1A3A19",
"1.	c #1D7A53",
"2.	c #187654",
"3.	c #0B4C38",
"4.	c #044D3A",
"5.	c #129D6D",
"6.	c #1A955D",
"7.	c #1C6638",
"8.	c #1C4D24",
"9.	c #1D461D",
"0.	c #195729",
"a.	c #089E5D",
"b.	c #00E18A",
"c.	c #00B06B",
"d.	c #0A5A30",
"e.	c #374B2F",
"f.	c #8AA280",
"g.	c #B2C9A8",
"h.	c #B4CBAA",
"i.	c #B3C9A9",
"j.	c #C1D1BA",
"k.	c #D6DDD2",
"l.	c #FAF9FA",
"m.	c #CFDACA",
"n.	c #78AB63",
"o.	c #589F3B",
"p.	c #60AB41",
"q.	c #417130",
"r.	c #1F3A19",
"s.	c #2D5822",
"t.	c #579F3B",
"u.	c #5CB449",
"v.	c #418E40",
"w.	c #20562B",
"x.	c #205328",
"y.	c #4CA144",
"z.	c #58A840",
"A.	c #5BA23A",
"B.	c #5CAB3F",
"C.	c #5BAA40",
"D.	c #478B34",
"E.	c #126333",
"F.	c #009F5F",
"G.	c #16AF60",
"H.	c #3AA348",
"I.	c #569E3A",
"J.	c #64AE46",
"K.	c #6EB94F",
"L.	c #6DB84D",
"M.	c #6CB74D",
"N.	c #76B05E",
"O.	c #84A676",
"P.	c #E8EBE7",
"Q.	c #A4C199",
"R.	c #69BB48",
"S.	c #75D54E",
"T.	c #6CC547",
"U.	c #376A27",
"V.	c #22461D",
"W.	c #559E3D",
"X.	c #76D44F",
"Y.	c #76D04A",
"Z.	c #417F32",
"`.	c #2A5E2A",
" +	c #488E38",
".+	c #75D04A",
"++	c #71CC4A",
"@+	c #67C74D",
"#+	c #66C64D",
"$+	c #60C14C",
"%+	c #42A146",
"&+	c #09542F",
"*+	c #064829",
"=+	c #3B8F3C",
"-+	c #69C84B",
";+	c #77D64E",
">+	c #70CB49",
",+	c #67BC44",
"'+	c #6EC04B",
")+	c #6FC44C",
"!+	c #70B554",
"~+	c #749E63",
"{+	c #CFDCC9",
"]+	c #81B66C",
"^+	c #6FCC49",
"/+	c #74D34D",
"(+	c #519436",
"_+	c #274B1C",
":+	c #305C24",
"<+	c #6CC649",
"[+	c #73D04D",
"}+	c #60B546",
"|+	c #296A37",
"1+	c #2F6E35",
"2+	c #64B441",
"3+	c #72D04C",
"4+	c #5FB445",
"5+	c #399F4D",
"6+	c #299952",
"7+	c #23904E",
"8+	c #137542",
"9+	c #005436",
"0+	c #1C4820",
"a+	c #589D39",
"b+	c #75D24D",
"c+	c #6CC548",
"d+	c #559939",
"e+	c #4C723D",
"f+	c #8BAC7E",
"g+	c #9DBF90",
"h+	c #A6C19C",
"i+	c #B8C7B2",
"j+	c #EAEAEA",
"k+	c #AAC79E",
"l+	c #6AB64B",
"m+	c #6EC849",
"n+	c #346022",
"o+	c #27491A",
"p+	c #4D8C34",
"q+	c #72CE4B",
"r+	c #42A252",
"s+	c #1E8358",
"t+	c #3D9C51",
"u+	c #74CC48",
"v+	c #60B848",
"w+	c #38A452",
"x+	c #1B9357",
"y+	c #096F47",
"z+	c #004831",
"A+	c #04593A",
"B+	c #3B8438",
"C+	c #68BE47",
"D+	c #78D850",
"E+	c #5DAF40",
"F+	c #2B5625",
"G+	c #39393B",
"H+	c #C9C6CB",
"I+	c #FBF9FD",
"J+	c #FCFAFE",
"K+	c #FDFBFE",
"L+	c #CAD5C5",
"M+	c #8ABC75",
"N+	c #69C644",
"O+	c #72CE4C",
"P+	c #5FA841",
"Q+	c #244018",
"R+	c #345F22",
"S+	c #66B944",
"T+	c #67BE47",
"U+	c #259365",
"V+	c #108B73",
"W+	c #319E60",
"X+	c #5FB646",
"Y+	c #6BC247",
"Z+	c #72CD4B",
"`+	c #71C949",
" @	c #62B03F",
".@	c #3E8B3B",
"+@	c #167A48",
"@@	c #15A263",
"#@	c #57B84B",
"$@	c #72CC4B",
"%@	c #6FCA4B",
"&@	c #48963C",
"*@	c #103E25",
"=@	c #2B2D2D",
"-@	c #C6C5C6",
";@	c #F0EDF1",
">@	c #A8C59B",
",@	c #75BB58",
"'@	c #71D24A",
")@	c #70CA4C",
"!@	c #62924F",
"~@	c #3D5B30",
"{@	c #518F37",
"]@	c #74D44D",
"^@	c #6FC94A",
"/@	c #4C9840",
"(@	c #0E8473",
"_@	c #008C8B",
":@	c #078675",
"<@	c #1E7349",
"[@	c #387431",
"}@	c #5CAD41",
"|@	c #6FCB4B",
"1@	c #79D64E",
"2@	c #5EBE4E",
"3@	c #2D9750",
"4@	c #339F51",
"5@	c #6AC74B",
"6@	c #77D44C",
"7@	c #5FB244",
"8@	c #2C6A30",
"9@	c #01251D",
"0@	c #C7C6C6",
"a@	c #B7C2B3",
"b@	c #87B76E",
"c@	c #6AC147",
"d@	c #71CF4B",
"e@	c #68B948",
"f@	c #749169",
"g@	c #689655",
"h@	c #6BBA4A",
"i@	c #75D54D",
"j@	c #67BD46",
"k@	c #2C5D2A",
"l@	c #065F5A",
"m@	c #006B69",
"n@	c #015550",
"o@	c #003632",
"p@	c #064335",
"q@	c #3D883E",
"r@	c #69C34A",
"s@	c #75D14B",
"t@	c #53AD49",
"u@	c #2C8748",
"v@	c #52AB46",
"w@	c #6FCC4C",
"x@	c #75D14C",
"y@	c #4C973D",
"z@	c #154525",
"A@	c #041C17",
"B@	c #353836",
"C@	c #C8C9C8",
"D@	c #FEFDFC",
"E@	c #82AB72",
"F@	c #78BD56",
"G@	c #71D049",
"H@	c #6FCA4A",
"I@	c #5FAC41",
"J@	c #5D8C4B",
"K@	c #67AF49",
"L@	c #70CB4C",
"M@	c #529D40",
"N@	c #103826",
"O@	c #164329",
"P@	c #1D4724",
"Q@	c #1F4A25",
"R@	c #206138",
"S@	c #2C8D53",
"T@	c #54AB47",
"U@	c #70CC4B",
"V@	c #66BD47",
"W@	c #419442",
"X@	c #318744",
"Y@	c #6BC347",
"Z@	c #74D04D",
"`@	c #6EC84A",
" #	c #4AA246",
".#	c #24753F",
"+#	c #216035",
"@#	c #425D38",
"##	c #AEB6AA",
"$#	c #F0F1F0",
"%#	c #5EA141",
"&#	c #6DBD47",
"*#	c #73D24D",
"=#	c #73CF4D",
"-#	c #6DC549",
";#	c #75D34E",
">#	c #62B242",
",#	c #336328",
"'#	c #133520",
")#	c #4D8F36",
"!#	c #68BB44",
"~#	c #6CC448",
"{#	c #6BC349",
"]#	c #74D24D",
"^#	c #4E9136",
"/#	c #306329",
"(#	c #418638",
"_#	c #72CF4C",
":#	c #73D04C",
"<#	c #6EC94A",
"[#	c #6AC347",
"}#	c #6ABF45",
"|#	c #61AA43",
"1#	c #A7C09C",
"2#	c #EAECE8",
"3#	c #73A75D",
"4#	c #70B151",
"5#	c #6BBA4B",
"6#	c #6CBA4C",
"7#	c #6BB94B",
"8#	c #61B040",
"9#	c #66B545",
"0#	c #5CA23D",
"a#	c #386C2D",
"b#	c #123626",
"c#	c #235633",
"d#	c #56A343",
"e#	c #62B544",
"f#	c #60B141",
"g#	c #60B243",
"h#	c #5FB447",
"i#	c #5CAA3F",
"j#	c #4A8831",
"k#	c #204720",
"l#	c #122F17",
"m#	c #356324",
"n#	c #5DB145",
"o#	c #60B748",
"p#	c #60B143",
"q#	c #60AE3F",
"r#	c #5FAD3E",
"s#	c #65AA48",
"t#	c #8DB67C",
"u#	c #DAE1D7",
"v#	c #FCFBFD",
"w#	c #D4D8D2",
"x#	c #C7D1C3",
"y#	c #BFCCB9",
"z#	c #B9C6B3",
"A#	c #9CA997",
"B#	c #364331",
"C#	c #3F4D39",
"D#	c #5D6657",
"E#	c #424B47",
"F#	c #00151D",
"G#	c #07474F",
"H#	c #0F6465",
"I#	c #115B54",
"J#	c #114234",
"K#	c #103827",
"L#	c #0F4837",
"M#	c #0E2E1E",
"N#	c #073B32",
"O#	c #025E5A",
"P#	c #005955",
"Q#	c #053A32",
"R#	c #0F634D",
"S#	c #10735C",
"T#	c #10422C",
"U#	c #0A1C08",
"V#	c #2C3A28",
"W#	c #8E9889",
"X#	c #E2E5E2",
"Y#	c #FBFCFC",
"Z#	c #FCFDFC",
"`#	c #F1F2F1",
" $	c #7B7C7B",
".$	c #2A2B2A",
"+$	c #525252",
"@$	c #71706F",
"#$	c #292D2F",
"$$	c #00212C",
"%$	c #004D64",
"&$	c #01596D",
"*$	c #003640",
"=$	c #000E0F",
"-$	c #001314",
";$	c #003537",
">$	c #007479",
",$	c #00969A",
"'$	c #008385",
")$	c #005353",
"!$	c #004341",
"~$	c #015451",
"{$	c #001413",
"]$	c #191615",
"^$	c #737373",
"/$	c #E3E3E3",
"($	c #D5D4D5",
"_$	c #343434",
":$	c #747474",
"<$	c #2C2F2F",
"[$	c #02161D",
"}$	c #00151C",
"|$	c #00222B",
"1$	c #00323F",
"2$	c #003A46",
"3$	c #00292F",
"4$	c #00393D",
"5$	c #00565B",
"6$	c #006A70",
"7$	c #005D62",
"8$	c #001F21",
"9$	c #000D0E",
"0$	c #1E2324",
"a$	c #BCBCBC",
"b$	c #535353",
"c$	c #262626",
"d$	c #5C5C5C",
"e$	c #7D7D7C",
"f$	c #555656",
"g$	c #1A1A1B",
"h$	c #00090D",
"i$	c #00202A",
"j$	c #003441",
"k$	c #002F39",
"l$	c #001C20",
"m$	c #000F11",
"n$	c #000E10",
"o$	c #001114",
"p$	c #0C1111",
"q$	c #474848",
"r$	c #9F9F9F",
"s$	c #C1C1C1",
"t$	c #636363",
"u$	c #242424",
"v$	c #3B3B3B",
"w$	c #7E7E7E",
"x$	c #676869",
"y$	c #434849",
"z$	c #242C2F",
"A$	c #161F22",
"B$	c #14191A",
"C$	c #1F2020",
"D$	c #393939",
"E$	c #5C5D5D",
"F$	c #797979",
"G$	c #7F7F7F",
"H$	c #AFAEAE",
"I$	c #E6E6E6",
"J$	c #FCFCFC",
"K$	c #414141",
"L$	c #212121",
"M$	c #363636",
"N$	c #5A5959",
"O$	c #727272",
"P$	c #7B7A7A",
"Q$	c #7D7C7C",
"R$	c #7D7D7D",
"S$	c #7C7C7B",
"T$	c #606060",
"U$	c #3C3C3C",
"V$	c #191919",
"W$	c #B8B8B8",
"X$	c #EBEBEB",
"Y$	c #C2C2C2",
"Z$	c #4F4F4F",
"`$	c #292929",
" %	c #2E2E2E",
".%	c #2F2F2F",
"+%	c #2B2B2B",
"@%	c #282828",
"#%	c #464646",
"$%	c #353535",
"%%	c #EDEDED",
"&%	c #D0D0D0",
"*%	c #AFAFAF",
"=%	c #909090",
"-%	c #696969",
";%	c #222222",
">%	c #AAAAAA",
",%	c #C9C9C9",
"'%	c #BABABA",
")%	c #939393",
"!%	c #F8F8F8",
"~%	c #484848",
"{%	c #454545",
"]%	c #ABABAB",
"^%	c #F1F1F1",
"/%	c #F7F7F7",
"(%	c #F5F5F5",
"_%	c #B7B7B7",
":%	c #DEDEDE",
"<%	c #A5A5A5",
"[%	c #A6A6A6",
"}%	c #9D9D9D",
"|%	c #777777",
"1%	c #ADADAD",
"2%	c #D8D8D8",
"3%	c #4B4B4B",
"4%	c #1B1B1B",
"5%	c #080808",
"6%	c #181818",
"7%	c #252525",
"8%	c #2A2A2A",
"9%	c #999999",
"0%	c #3D3D3D",
"a%	c #1B140D",
"b%	c #1E1913",
"c%	c #231D16",
"d%	c #161616",
"e%	c #131313",
"f%	c #101010",
"g%	c #111111",
"h%	c #151515",
"  . . . . . . . + @ # $ % % & * * & = % . . . . . . . . . . .   ",
". . . . . . . . - ; > , ' . ) ! ! ~ . . . . . . . . . . . . . % ",
". . . . . . . . { ] ^ / ( _ : < [ } | 1 2 . . . . . . . . . . = ",
". . . . . . . 3 4 5 6 7 8 9 0 a b c d e f g h i . . . . . . . = ",
". . . . . . j k l m ; n o p q r s t u v w x y z A . . . . . . = ",
". . . . . B k C D E F G H I J K L M N O P Q R S T U . . . . . % ",
". . . . V W X Y Z `  ...+.@.#.$.%.&.*.=.-.;.>.,.'.).!.~.{.].^.. ",
". . . /.(._.:.<.[.}.|.1.2.3.4.5.6.7.8.9.0.a.b.c.d.e.f.g.h.i.j.k.",
". . l.m.n.o.p.q.r.s.t.u.v.w.x.y.z.A.B.C.D.E.F.G.H.I.J.K.L.M.N.O.",
". . P.Q.R.S.T.U.V.W.X.Y.Z.`. +.+++@+#+$+%+&+*+=+-+;+>+,+'+)+!+~+",
". ^.{+]+^+/+(+_+:+<+[+}+|+1+2+3+4+5+6+7+8+9+0+a+b+c+d+e+f+g+h+i+",
". j+k+l+3+m+n+o+p+S.q+r+s+t+u+[+v+w+x+y+z+A+B+C+D+E+F+G+H+I+J+K+",
". L+M+N+O+P+Q+R+S+[+T+U+V+W+X+Y+Z+`+ @.@+@@@#@$@%@&@*@=@-@. . % ",
";@>@,@'@)@!@~@{@]@^@/@(@_@:@<@[@}@|@1@2@3@4@5@6@7@8@9@=@0@. . = ",
"a@b@c@d@e@f@g@h@i@j@k@l@m@n@o@p@q@r@s@t@u@v@w@x@y@z@A@B@C@. D@= ",
"E@F@G@H@I@J@K@Z+L@M@N@O@P@Q@R@S@T@U@V@W@X@Y@Z@`@ #.#+#@###$#D@% ",
"%#&#*#=#O+-#U@;#>#,#'#)#!#~#{#-#O+]#^#/#(#_#[+:#<#[#}#|#1#2#D@% ",
"3#4#5#6#7#8#9#0#a#b#c#d#e#f#g#h#i#j#k#l#m#n#o#p#q#r#s#t#u#v#D@= ",
"w#x#y#z#A#B#C#D#E#F#G#H#I#J#K#L#M#N#O#P#Q#R#S#T#U#V#W#X#Y#. . = ",
"% = Z#= `# $.$+$@$#$$$%$&$*$=$-$;$>$,$'$)$!$~${$]$^$/$= . . . = ",
". . . . = ($k _$# :$<$[$}$|$1$2$3$4$5$6$7$8$9$0$E ( . . . . . = ",
". . . . . . a$b$c$d$e$f$g$h$i$j$k$l$m$n$o$p$q$r$- . . . . . . = ",
". . . . . . = s$t$u$v$^$w$x$y$z$A$B$C$D$E$F$G$H$I$. . . . . . = ",
". . . . . . . J$( 8 K$L$M$N$O$P$Q$R$S$:$T$U$V$6 W$. . . . . . = ",
". . . . . . . . % X$Y$G$Z$_$`$`$ %.%+%@%C #%$%L$; %%. . . . . = ",
". . . . . . . . . . % X$&%*%=%; -%;%5 t$>%,%'%)%W$!%. . . . . = ",
". . . . . . . . . . . . . . * ' B ~%{%]%. . J$^%/%. . . . . . = ",
". . . . . . . . . . . . . . . . (%b$6 _%. . . . . . . . . . . = ",
". . . . . . . . . . . . :%_%<%[%}%_$C |%*%]%1%2%!%. . . . . . = ",
". . . . . . . . . . . . 1%3%4%;%L$5%5%6%7%u$8%9%' . . . . . . = ",
"J$= % = = = = = = = = . [%0%a%b%b%c%d%e%f%g%h%=%X$. = = = % = J$",
"                                                                "};
