/* XPM */
static char * uscoin16_xpm[] = {
"16 16 253 2",
"  	c None",
". 	c #1F3A19",
"+ 	c #2D5822",
"@ 	c #579F3B",
"# 	c #5CB449",
"$ 	c #418E40",
"% 	c #20562B",
"& 	c #205328",
"* 	c #4CA144",
"= 	c #58A840",
"- 	c #5BA23A",
"; 	c #5CAB3F",
"> 	c #5BAA40",
", 	c #478B34",
"' 	c #126333",
") 	c #009F5F",
"! 	c #16AF60",
"~ 	c #22461D",
"{ 	c #559E3D",
"] 	c #76D44F",
"^ 	c #76D04A",
"/ 	c #417F32",
"( 	c #2A5E2A",
"_ 	c #488E38",
": 	c #75D04A",
"< 	c #71CC4A",
"[ 	c #67C74D",
"} 	c #66C64D",
"| 	c #60C14C",
"1 	c #42A146",
"2 	c #09542F",
"3 	c #064829",
"4 	c #3B8F3C",
"5 	c #305C24",
"6 	c #6CC649",
"7 	c #73D04D",
"8 	c #60B546",
"9 	c #296A37",
"0 	c #2F6E35",
"a 	c #64B441",
"b 	c #72D04C",
"c 	c #5FB445",
"d 	c #399F4D",
"e 	c #299952",
"f 	c #23904E",
"g 	c #137542",
"h 	c #005436",
"i 	c #1C4820",
"j 	c #589D39",
"k 	c #4D8C34",
"l 	c #75D54E",
"m 	c #72CE4B",
"n 	c #42A252",
"o 	c #1E8358",
"p 	c #3D9C51",
"q 	c #74CC48",
"r 	c #60B848",
"s 	c #38A452",
"t 	c #1B9357",
"u 	c #096F47",
"v 	c #004831",
"w 	c #04593A",
"x 	c #3B8438",
"y 	c #68BE47",
"z 	c #66B944",
"A 	c #67BE47",
"B 	c #259365",
"C 	c #108B73",
"D 	c #319E60",
"E 	c #5FB646",
"F 	c #6BC247",
"G 	c #72CD4B",
"H 	c #71C949",
"I 	c #62B03F",
"J 	c #3E8B3B",
"K 	c #167A48",
"L 	c #15A263",
"M 	c #57B84B",
"N 	c #72CC4B",
"O 	c #74D44D",
"P 	c #6FC94A",
"Q 	c #4C9840",
"R 	c #0E8473",
"S 	c #008C8B",
"T 	c #078675",
"U 	c #1E7349",
"V 	c #387431",
"W 	c #5CAD41",
"X 	c #6FCB4B",
"Y 	c #79D64E",
"Z 	c #5EBE4E",
"` 	c #2D9750",
" .	c #339F51",
"..	c #6AC74B",
"+.	c #77D44C",
"@.	c #75D54D",
"#.	c #67BD46",
"$.	c #2C5D2A",
"%.	c #065F5A",
"&.	c #006B69",
"*.	c #015550",
"=.	c #003632",
"-.	c #064335",
";.	c #3D883E",
">.	c #69C34A",
",.	c #75D14B",
"'.	c #53AD49",
").	c #2C8748",
"!.	c #52AB46",
"~.	c #6FCC4C",
"{.	c #75D14C",
"].	c #70CB4C",
"^.	c #529D40",
"/.	c #103826",
"(.	c #164329",
"_.	c #1D4724",
":.	c #1F4A25",
"<.	c #206138",
"[.	c #2C8D53",
"}.	c #54AB47",
"|.	c #70CC4B",
"1.	c #66BD47",
"2.	c #419442",
"3.	c #318744",
"4.	c #6BC347",
"5.	c #74D04D",
"6.	c #6EC84A",
"7.	c #62B242",
"8.	c #336328",
"9.	c #133520",
"0.	c #4D8F36",
"a.	c #68BB44",
"b.	c #6CC448",
"c.	c #6BC349",
"d.	c #6DC549",
"e.	c #72CE4C",
"f.	c #74D24D",
"g.	c #4E9136",
"h.	c #306329",
"i.	c #418638",
"j.	c #72CF4C",
"k.	c #73D04C",
"l.	c #386C2D",
"m.	c #123626",
"n.	c #235633",
"o.	c #56A343",
"p.	c #62B544",
"q.	c #60B141",
"r.	c #60B243",
"s.	c #5FB447",
"t.	c #5CAA3F",
"u.	c #4A8831",
"v.	c #204720",
"w.	c #122F17",
"x.	c #356324",
"y.	c #5DB145",
"z.	c #60B748",
"A.	c #60B143",
"B.	c #424B47",
"C.	c #00151D",
"D.	c #07474F",
"E.	c #0F6465",
"F.	c #115B54",
"G.	c #114234",
"H.	c #103827",
"I.	c #0F4837",
"J.	c #0E2E1E",
"K.	c #073B32",
"L.	c #025E5A",
"M.	c #005955",
"N.	c #053A32",
"O.	c #0F634D",
"P.	c #10735C",
"Q.	c #10422C",
"R.	c #71706F",
"S.	c #292D2F",
"T.	c #00212C",
"U.	c #004D64",
"V.	c #01596D",
"W.	c #003640",
"X.	c #000E0F",
"Y.	c #001314",
"Z.	c #003537",
"`.	c #007479",
" +	c #00969A",
".+	c #008385",
"++	c #005353",
"@+	c #004341",
"#+	c #015451",
"$+	c #001413",
"%+	c #5E5E5E",
"&+	c #747474",
"*+	c #2C2F2F",
"=+	c #02161D",
"-+	c #00151C",
";+	c #00222B",
">+	c #00323F",
",+	c #003A46",
"'+	c #00292F",
")+	c #00393D",
"!+	c #00565B",
"~+	c #006A70",
"{+	c #005D62",
"]+	c #001F21",
"^+	c #000D0E",
"/+	c #1E2324",
"(+	c #262626",
"_+	c #5C5C5C",
":+	c #7D7D7C",
"<+	c #555656",
"[+	c #1A1A1B",
"}+	c #00090D",
"|+	c #00202A",
"1+	c #003441",
"2+	c #002F39",
"3+	c #001C20",
"4+	c #000F11",
"5+	c #000E10",
"6+	c #001114",
"7+	c #0C1111",
"8+	c #474848",
"9+	c #9F9F9F",
"0+	c #636363",
"a+	c #242424",
"b+	c #3B3B3B",
"c+	c #737373",
"d+	c #7E7E7E",
"e+	c #676869",
"f+	c #434849",
"g+	c #242C2F",
"h+	c #161F22",
"i+	c #14191A",
"j+	c #1F2020",
"k+	c #393939",
"l+	c #5C5D5D",
"m+	c #797979",
"n+	c #7F7F7F",
"o+	c #AFAEAE",
"p+	c #D5D5D5",
"q+	c #898989",
"r+	c #414141",
"s+	c #212121",
"t+	c #363636",
"u+	c #5A5959",
"v+	c #727272",
"w+	c #7B7A7A",
"x+	c #7D7C7C",
"y+	c #7D7D7D",
"z+	c #7C7C7B",
"A+	c #606060",
"B+	c #3C3C3C",
"C+	c #191919",
"D+	c #4D4D4D",
". + @ # $ % & * = - ; > , ' ) ! ",
"~ { ] ^ / ( _ : < [ } | 1 2 3 4 ",
"5 6 7 8 9 0 a b c d e f g h i j ",
"k l m n o p q 7 r s t u v w x y ",
"z 7 A B C D E F G H I J K L M N ",
"O P Q R S T U V W X Y Z `  ...+.",
"@.#.$.%.&.*.=.-.;.>.,.'.).!.~.{.",
"].^./.(._.:.<.[.}.|.1.2.3.4.5.6.",
"7.8.9.0.a.b.c.d.e.f.g.h.i.j.7 k.",
"l.m.n.o.p.q.r.s.t.u.v.w.x.y.z.A.",
"B.C.D.E.F.G.H.I.J.K.L.M.N.O.P.Q.",
"R.S.T.U.V.W.X.Y.Z.`. +.+++@+#+$+",
"%+&+*+=+-+;+>+,+'+)+!+~+{+]+^+/+",
"(+_+:+<+[+}+|+1+2+3+4+5+6+7+8+9+",
"0+a+b+c+d+e+f+g+h+i+j+k+l+m+n+o+",
"p+q+r+s+t+u+v+w+x+y+z+&+A+B+C+D+"};
